<?xml version="1.0" encoding="utf-8"?>
<!-- Generator: Adobe Illustrator 16.0.0, SVG Export Plug-In . SVG Version: 6.00 Build 0)  -->
<!DOCTYPE svg PUBLIC "-//W3C//DTD SVG 1.1//EN" "http://www.w3.org/Graphics/SVG/1.1/DTD/svg11.dtd">
<svg version="1.1" id="图层_1" xmlns="http://www.w3.org/2000/svg" xmlns:xlink="http://www.w3.org/1999/xlink" x="0px" y="0px"
	 width="300px" height="180px" viewBox="0 0 300 180" enable-background="new 0 0 300 180" xml:space="preserve">
<g>
	<title>Layer 1</title>
	<ellipse id="svg_3" fill="#FF0000" stroke="#FFFFFF" stroke-width="1.5" cx="82.5" cy="15.4" rx="8.5" ry="9.5"/>
	<line id="svg_16" fill="none" stroke="#191919" stroke-width="1.5" x1="52.5" y1="153.9" x2="82.5" y2="104.9"/>
	<line id="svg_17" fill="none" stroke="#191919" stroke-width="1.5" x1="87.5" y1="103.9" x2="119.5" y2="154.9"/>
	<line id="svg_18" fill="none" stroke="#191919" stroke-width="1.5" x1="199.133" y1="103.148" x2="230.133" y2="149.148"/>
	<line id="svg_19" fill="none" stroke="#191919" stroke-width="1.5" x1="147.5" y1="148.876" x2="180.5" y2="98.876"/>
	<ellipse id="svg_20" fill="#FF0000" stroke="#FFFFFF" stroke-width="1.5" cx="282" cy="38.9" rx="8.5" ry="9.5"/>
	<text id="svg_21" transform="matrix(1 0 0 1 241.5 29.9004)" font-family="'AdobeSongStd-Light-GBpc-EUC-H'" font-size="24">程序</text>
	<text id="svg_22" transform="matrix(1 0 0 1 97.5 29.9004)" font-family="'AdobeSongStd-Light-GBpc-EUC-H'" font-size="24">编码格式</text>
	<text id="svg_28" transform="matrix(1 0 0 1 17.5 101.9004)" font-family="'AdobeSongStd-Light-GBpc-EUC-H'" font-size="24">配置数据</text>
	<text id="svg_29" transform="matrix(1 0 0 1 133.5 96.9004)" font-family="'AdobeSongStd-Light-GBpc-EUC-H'" font-size="24">对象数据</text>
	<text id="svg_30" transform="matrix(1 0 0 1 4.5 160.9004)" font-family="'AdobeSongStd-Light-GBpc-EUC-H'" font-size="24">配置</text>
	<text id="svg_31" transform="matrix(1 0 0 1 85.5 164.3008)" font-family="'AdobeSongStd-Light-GBpc-EUC-H'" font-size="24">上下文</text>
	<text id="svg_32" transform="matrix(1 0 0 1 211.5 161.9004)" font-family="'AdobeSongStd-Light-GBpc-EUC-H'" font-size="24">代理</text>
	<line id="svg_36" fill="none" stroke="#FFFFFF" stroke-width="1.5" x1="220.5" y1="79.4" x2="222.5" y2="76.4"/>
</g>
</svg>
