<?xml version="1.0" encoding="utf-8"?>
<!-- Generator: Adobe Illustrator 16.0.0, SVG Export Plug-In . SVG Version: 6.00 Build 0)  -->
<!DOCTYPE svg PUBLIC "-//W3C//DTD SVG 1.1//EN" "http://www.w3.org/Graphics/SVG/1.1/DTD/svg11.dtd">
<svg version="1.1" id="图层_1" xmlns="http://www.w3.org/2000/svg" xmlns:xlink="http://www.w3.org/1999/xlink" x="0px" y="0px"
	 width="300px" height="180px" viewBox="0 0 300 180" enable-background="new 0 0 300 180" xml:space="preserve">
<g>
	<title>background</title>
	<rect id="canvas_background" x="-1" y="-1" fill="#FFFFFF" width="302" height="182"/>
	<g id="canvasGrid" display="none">
		<rect id="svg_1" display="inline" fill="none" width="300" height="180"/>
	</g>
</g>
<g>
	<title>Layer 1</title>
	<ellipse id="svg_3" fill="#FF0000" stroke="#FFFFFF" stroke-width="1.5" cx="119" cy="48.4" rx="8.5" ry="9.5"/>
	<line id="svg_16" fill="none" stroke="#191919" stroke-width="1.5" x1="52.5" y1="153.9" x2="82.5" y2="104.9"/>
	<line id="svg_17" fill="none" stroke="#191919" stroke-width="1.5" x1="87.5" y1="103.9" x2="119.5" y2="154.9"/>
	<line id="svg_18" fill="none" stroke="#191919" stroke-width="1.5" x1="152.5" y1="107.9" x2="183.5" y2="153.9"/>
	<line id="svg_19" fill="none" stroke="#191919" stroke-width="1.5" x1="120.5" y1="155.9" x2="153.5" y2="105.9"/>
	<ellipse id="svg_20" fill="#FF0000" stroke="#FFFFFF" stroke-width="1.5" cx="265" cy="71.4" rx="8.5" ry="9.5"/>
	<text id="svg_21" transform="matrix(1 0 0 1 234.5 107.9004)" font-family="'AdobeSongStd-Light-GBpc-EUC-H'" font-size="24">编码</text>
	<text id="svg_22" transform="matrix(1 0 0 1 97.5 29.9004)" font-family="'AdobeSongStd-Light-GBpc-EUC-H'" font-size="24">规则</text>
	<text id="svg_28" transform="matrix(1 0 0 1 60.5 101.9004)" font-family="'AdobeSongStd-Light-GBpc-EUC-H'" font-size="24">数量</text>
	<text id="svg_29" transform="matrix(1 0 0 1 133.5 104.9004)" font-family="'AdobeSongStd-Light-GBpc-EUC-H'" font-size="24">映射</text>
	<text id="svg_30" transform="matrix(1 0 0 1 32.5 160.9004)" font-family="'AdobeSongStd-Light-GBpc-EUC-H'" font-size="24">数组</text>
	<text id="svg_31" transform="matrix(1 0 0 1 99.5 163.9004)" font-family="'AdobeSongStd-Light-GBpc-EUC-H'" font-size="24">队列</text>
	<text id="svg_32" transform="matrix(1 0 0 1 173.5 161.9004)" font-family="'AdobeSongStd-Light-GBpc-EUC-H'" font-size="24">链表</text>
	<line id="svg_36" fill="none" stroke="#FFFFFF" stroke-width="1.5" x1="220.5" y1="79.4" x2="222.5" y2="76.4"/>
</g>
</svg>
