<svg width="300" height="180" xmlns="http://www.w3.org/2000/svg">
 <!-- Created with Method Draw - http://github.com/duopixel/Method-Draw/ -->
 <g>
  <title>background</title>
  <rect fill="#fff" id="canvas_background" height="180" width="300" y="-1" x="-1"/>
  <g display="none" overflow="visible" y="0" x="0" height="100%" width="100%" id="canvasGrid">
   <rect fill="url(#gridpattern)" stroke-width="0" y="0" x="0" height="100%" width="100%"/>
  </g>
 </g>
 <g>
  <title>Layer 1</title>
  <ellipse ry="9.5" rx="8.5" id="svg_3" cy="48.4" cx="119" stroke-width="1.5" stroke="#fff" fill="#ff0000"/>
  <ellipse ry="10" rx="9" id="svg_6" cy="101.9" cx="85.5" stroke-width="1.5" stroke="#fff" fill="#0000bf"/>
  <ellipse ry="10" rx="9" id="svg_10" cy="104.9" cx="152.5" stroke-width="1.5" stroke="#fff" fill="#0000bf"/>
  <ellipse ry="10" rx="9" id="svg_11" cy="153.9" cx="52.5" stroke-width="1.5" stroke="#fff" fill="#0000bf"/>
  <ellipse stroke="#fff" ry="10" rx="9" id="svg_12" cy="101.9" cx="85.5" stroke-width="1.5" fill="#0000bf"/>
  <ellipse ry="10" rx="9" id="svg_13" cy="156.9" cx="119.5" stroke-width="1.5" stroke="#fff" fill="#0000bf"/>
  <ellipse ry="10" rx="9" id="svg_14" cy="154.9" cx="183.5" stroke-width="1.5" stroke="#fff" fill="#0000bf"/>
  <line stroke="#191919" stroke-linecap="null" stroke-linejoin="null" id="svg_16" y2="104.899998" x2="82.5" y1="153.9" x1="52.5" stroke-width="1.5" fill="none"/>
  <line stroke-linecap="null" stroke-linejoin="null" id="svg_17" y2="154.9" x2="119.5" y1="103.9" x1="87.5" fill-opacity="null" stroke-opacity="null" stroke-width="1.5" stroke="#191919" fill="none"/>
  <line stroke-linecap="null" stroke-linejoin="null" id="svg_18" y2="153.9" x2="183.5" y1="107.9" x1="152.5" fill-opacity="null" stroke-opacity="null" stroke-width="1.5" stroke="#191919" fill="none"/>
  <line stroke-linecap="null" stroke-linejoin="null" id="svg_19" y2="105.9" x2="153.5" y1="155.9" x1="120.5" fill-opacity="null" stroke-opacity="null" stroke-width="1.5" stroke="#191919" fill="none"/>
  <ellipse ry="9.5" rx="8.5" id="svg_20" cy="88.4" cx="275" stroke-width="1.5" stroke="#fff" fill="#ff0000"/>
  <text xml:space="preserve" text-anchor="start" font-family="Helvetica, Arial, sans-serif" font-size="24" id="svg_21" y="125.9" x="250.5" fill-opacity="null" stroke-opacity="null" stroke-width="0" stroke="#fff" fill="#000000">名称</text>
  <text style="cursor: move;" xml:space="preserve" text-anchor="start" font-family="Helvetica, Arial, sans-serif" font-size="24" id="svg_22" y="29.9" x="97.5" fill-opacity="null" stroke-opacity="null" stroke-width="0" stroke="#fff" fill="#000000">规则</text>
 </g>
</svg>